# xmcd
#
# Track frame offsets:
# 150
# 16409
# 32014
# 43146
# 56494
# 69953
# 82060
# 99587
# 113087
# 124232
#
# Disc length: 1794 seconds
#
#
# Revision: 0
# Processed by: cddbd v1.5PL3 Copyright (c) Steve Scherf et al.
# Submitted via: FreeRIP 2.53 
#
DISCID=8107000a
DTITLE=Gayle, Crystal - Greatest Hits
DYEAR=1900
DGENRE=
TTITLE0=I'll Get Over You
TTITLE1=When I Dream
TTITLE2=Ready For The Times To Get Better
TTITLE3=I'll Do It All Over Again
TTITLE4=Why Have You Left The One You Left Me For
TTITLE5=Don't It Make My Brown Eyes Blue
TTITLE6=You Never Miss A Real Good Thing
TTITLE7=Talking In Your Sleep
TTITLE8=Somebody Loves You
TTITLE9=Your Old Cold Shoulder
EXTD=
EXTT0=
EXTT1=
EXTT2=
EXTT3=
EXTT4=
EXTT5=
EXTT6=
EXTT7=
EXTT8=
EXTT9=
PLAYORDER=
